<svg xmlns="http://www.w3.org/2000/svg" width="375" viewBox="0 0 375 375" height="375" version="1.0"><defs><clipPath id="a"><path d="M 2 24.203125 L 373 24.203125 L 373 350.453125 L 2 350.453125 Z M 2 24.203125"/></clipPath></defs><g clip-path="url(#a)"><path fill="#910C1C" d="M 165.398438 38.636719 C 145.554688 73.289062 96.539062 159.988281 57.15625 229.660156 L 5.054688 321.753906 C 0.367188 330 2.117188 336.515625 3.574219 339.667969 C 6.527344 346.050781 12.832031 349.234375 17.742188 350.09375 L 18.734375 350.261719 L 354.976562 350.269531 L 354.273438 350.246094 C 359.546875 350.570312 366.546875 348.671875 370.375 342.386719 C 372.824219 338.351562 374.582031 331.488281 369.011719 321.730469 L 264.90625 140.023438 L 207.300781 39.515625 C 200.082031 26.910156 191.710938 24.257812 185.957031 24.257812 C 180.34375 24.257812 172.214844 26.75 165.402344 38.636719 L 165.394531 38.636719 Z M 77.65625 241.59375 C 117.03125 171.949219 166.023438 85.28125 185.832031 50.683594 L 186.070312 50.308594 C 186.324219 50.695312 186.570312 51.046875 186.855469 51.554688 L 244.480469 152.082031 C 244.480469 152.082031 336.417969 312.566406 344.285156 326.285156 L 29.738281 326.277344 L 77.652344 241.59375" fill-rule="evenodd"/></g><path fill="#910C1C" d="M 187.371094 308.890625 C 197.554688 308.890625 205.8125 300.351562 205.8125 289.824219 C 205.8125 279.304688 197.554688 270.765625 187.371094 270.765625 C 177.167969 270.765625 168.914062 279.304688 168.914062 289.824219 C 168.914062 300.351562 177.167969 308.890625 187.371094 308.890625" fill-rule="evenodd"/><path fill="#910C1C" d="M 187.371094 122.125 C 202.085938 122.125 215.609375 136.027344 214.015625 149.660156 L 201.414062 245.546875 C 200.183594 253.925781 195.125 260.054688 187.371094 260.054688 C 179.613281 260.054688 174.539062 253.925781 173.324219 245.546875 L 160.714844 149.660156 C 159.117188 136.027344 172.644531 122.125 187.371094 122.125" fill-rule="evenodd"/></svg>